HIERARCHY
ROOT Hips
{
	OFFSET 0.000000 0.000000 0.000000
	CHANNELS 6 Xposition Yposition Zposition Xrotation Zrotation Yrotation
	JOINT Spine
	{
		OFFSET 0.000000 0.000011 -22.304516
		CHANNELS 6 Xposition Yposition Zposition Xrotation Zrotation Yrotation
		JOINT Spine1
		{
			OFFSET 0.000000 0.000025 -50.470581
			CHANNELS 6 Xposition Yposition Zposition Xrotation Zrotation Yrotation
			JOINT Neck
			{
				OFFSET 0.000000 0.000027 -55.910698
				CHANNELS 6 Xposition Yposition Zposition Xrotation Zrotation Yrotation
				JOINT Head
				{
					OFFSET 0.000000 5.440146 -42.160976
					CHANNELS 6 Xposition Yposition Zposition Xrotation Zrotation Yrotation
					End Site
					{
						OFFSET 0.000000 0.000027 -54.401260
					}
				}
			}
			JOINT LeftShoulder
			{
				OFFSET 10.857560 -1.186532 -45.619255
				CHANNELS 6 Xposition Yposition Zposition Xrotation Zrotation Yrotation
				JOINT LeftArm
				{
					OFFSET 31.468504 0.000000 0.000000
					CHANNELS 6 Xposition Yposition Zposition Xrotation Zrotation Yrotation
					JOINT LeftForeArm
					{
						OFFSET 81.606392 0.000000 0.000000
						CHANNELS 6 Xposition Yposition Zposition Xrotation Zrotation Yrotation
						JOINT LeftHand
						{
							OFFSET 72.986526 0.000000 0.000000
							CHANNELS 6 Xposition Yposition Zposition Xrotation Zrotation Yrotation
							End Site
							{
								OFFSET 40.800957 0.000000 0.000000
							}
						}
					}
				}
			}
			JOINT RightShoulder
			{
				OFFSET -10.879749 -1.186532 -45.619255
				CHANNELS 6 Xposition Yposition Zposition Xrotation Zrotation Yrotation
				JOINT RightArm
				{
					OFFSET -31.468504 0.000000 0.000000
					CHANNELS 6 Xposition Yposition Zposition Xrotation Zrotation Yrotation
					JOINT RightForeArm
					{
						OFFSET -81.606392 0.000000 0.000000
						CHANNELS 6 Xposition Yposition Zposition Xrotation Zrotation Yrotation
						JOINT RightHand
						{
							OFFSET -72.986526 0.000000 0.000000
							CHANNELS 6 Xposition Yposition Zposition Xrotation Zrotation Yrotation
							End Site
							{
								OFFSET -40.800957 0.000000 0.000000
							}
						}
					}
				}
			}
		}
	}
	JOINT LeftUpLeg
	{
		OFFSET 27.200626 0.000000 0.000000
		CHANNELS 6 Xposition Yposition Zposition Xrotation Zrotation Yrotation
		JOINT LeftLeg
		{
			OFFSET 0.000000 -0.000069 141.571121
			CHANNELS 6 Xposition Yposition Zposition Xrotation Zrotation Yrotation
			JOINT LeftFoot
			{
				OFFSET 0.000000 -0.000056 113.727898
				CHANNELS 6 Xposition Yposition Zposition Xrotation Zrotation Yrotation
				JOINT LeftToeBase
				{
					OFFSET 0.000000 40.800934 17.680408
					CHANNELS 6 Xposition Yposition Zposition Xrotation Zrotation Yrotation
					End Site
					{
						OFFSET 0.000000 10.880253 0.000000
					}
				}
			}
		}
	}
	JOINT RightUpLeg
	{
		OFFSET -27.200626 0.000000 0.000000
		CHANNELS 6 Xposition Yposition Zposition Xrotation Zrotation Yrotation
		JOINT RightLeg
		{
			OFFSET 0.000000 -0.000069 141.571121
			CHANNELS 6 Xposition Yposition Zposition Xrotation Zrotation Yrotation
			JOINT RightFoot
			{
				OFFSET 0.000000 -0.000056 113.727898
				CHANNELS 6 Xposition Yposition Zposition Xrotation Zrotation Yrotation
				JOINT RightToeBase
				{
					OFFSET 0.000000 40.800934 17.680408
					CHANNELS 6 Xposition Yposition Zposition Xrotation Zrotation Yrotation
					End Site
					{
						OFFSET 0.000000 10.880253 0.000000
					}
				}
			}
		}
	}
}
MOTION
Frames: 7
Frame Time: 0.041667
0.682504 -35.545414 -223.731354 3.147432 0.546032 -1.255786 0.000001 0.000005 -22.304478 11.066284 4.013245 -1.727165 -0.000002 0.000024 -50.470638 10.603916 1.645476 -3.959394 0.000011 0.000040 -55.910625 11.613680 17.572101 -3.233851 -0.000018 5.440176 -42.160950 16.016993 17.760261 27.448621 10.857569 -1.186519 -45.619156 1.952440 17.319512 -0.443124 31.468493 0.000045 -0.000004 65.740694 40.731748 6.555327 81.606354 -0.000065 -0.000008 57.395726 43.904992 119.232317 72.986603 -0.000014 -0.000083 -8.458792 11.053617 31.820110 -10.879745 -1.186561 -45.619217 -1.672664 -7.682385 -2.205722 -31.468485 0.000016 -0.000007 26.076619 -28.667025 16.555120 -81.606392 0.000023 -0.000008 -11.279167 2.432034 -4.044088 -72.986496 0.000019 0.000032 -11.762165 2.992335 -21.526207 27.200624 0.000004 0.000034 -13.774979 13.749271 35.403138 -0.000028 -0.000070 141.571060 44.239009 -10.968229 -36.175530 -0.000006 -0.000033 113.727890 -17.155308 -24.649804 -1.513323 -0.000019 40.800919 17.680410 0.000001 0.000007 -0.000003 -27.200623 0.000001 0.000027 -18.344701 -2.075494 -33.779483 -0.000004 -0.000073 141.571091 39.735059 -1.523100 34.191999 0.000039 -0.000053 113.727936 -24.721788 31.605106 -5.864699 -0.000010 40.800953 17.680408 -0.000002 -0.000001 0.000002 
0.659164 -35.518150 -223.731400 3.151989 0.544600 -1.261233 -0.000001 0.000015 -22.304527 11.079501 4.008970 -1.732180 0.000005 0.000041 -50.470551 10.618901 1.644772 -3.963990 0.000003 0.000051 -55.910686 11.615081 17.570296 -3.225655 -0.000013 5.440170 -42.161018 16.007166 17.760783 27.431802 10.857562 -1.186523 -45.619236 1.951186 17.316807 -0.440268 31.468496 0.000034 -0.000031 65.766314 40.734903 6.562371 81.606407 -0.000043 -0.000023 57.387652 43.894218 119.235692 72.986557 -0.000016 0.000015 -8.462827 11.051209 31.761032 -10.879745 -1.186507 -45.619251 -1.672424 -7.678669 -2.194746 -31.468523 0.000001 -0.000042 26.098189 -28.678438 16.543833 -81.606384 -0.000048 0.000011 -11.313321 2.418207 -4.037473 -72.986481 0.000044 0.000045 -11.794594 2.971111 -21.589400 27.200621 -0.000003 -0.000032 -13.770663 13.749829 35.410183 0.000004 -0.000056 141.571121 44.203171 -10.928106 -36.160524 -0.000036 -0.000051 113.727913 -17.150433 -24.700537 -1.534608 -0.000010 40.800941 17.680410 -0.000000 0.000005 -0.000002 -27.200623 -0.000007 0.000007 -18.347842 -2.069519 -33.771092 -0.000006 -0.000067 141.571167 39.740776 -1.530724 34.194888 0.000041 -0.000050 113.727936 -24.733280 31.609689 -5.873206 -0.000014 40.800919 17.680410 0.000002 0.000002 0.000002 
0.631443 -35.503307 -223.739471 3.165421 0.536472 -1.266749 -0.000000 -0.000003 -22.304550 11.090258 4.009675 -1.722963 -0.000004 0.000017 -50.470615 10.615798 1.643309 -3.944637 0.000003 0.000025 -55.910774 11.617898 17.568689 -3.217163 0.000023 5.440135 -42.160938 15.992164 17.763099 27.388517 10.857567 -1.186529 -45.619251 1.962067 17.305994 -0.446762 31.468519 0.000024 -0.000080 65.816147 40.754274 6.598156 81.606392 0.000016 0.000003 57.324166 43.872720 119.216362 72.986526 0.000001 -0.000049 -8.474344 11.072065 31.725880 -10.879743 -1.186521 -45.619263 -1.656382 -7.687153 -2.205715 -31.468519 -0.000023 0.000044 26.116495 -28.688342 16.542208 -81.606392 0.000031 0.000055 -11.303073 2.436921 -4.021940 -72.986557 0.000014 0.000017 -11.789000 2.987937 -21.655096 27.200628 -0.000004 0.000004 -13.780702 13.756577 35.414080 0.000019 -0.000065 141.571136 44.201842 -10.932883 -36.146802 -0.000024 -0.000054 113.727928 -17.144555 -24.696364 -1.524855 0.000009 40.800953 17.680408 -0.000000 0.000000 -0.000000 -27.200624 -0.000007 -0.000007 -18.359062 -2.062466 -33.757930 -0.000026 -0.000073 141.571091 39.762838 -1.507010 34.189147 0.000050 -0.000045 113.727943 -24.733804 31.594399 -5.855701 -0.000001 40.800915 17.680408 0.000000 -0.000001 0.000002 
0.603645 -35.478230 -223.740158 3.166967 0.531974 -1.265997 0.000002 0.000023 -22.304535 11.093077 4.003265 -1.714081 -0.000000 0.000029 -50.470520 10.624626 1.640525 -3.931094 0.000003 0.000054 -55.910702 11.601703 17.564926 -3.226217 -0.000015 5.440100 -42.161110 15.996170 17.759240 27.375497 10.857561 -1.186501 -45.619213 1.956321 17.304962 -0.460725 31.468512 0.000038 0.000047 65.809405 40.750599 6.590998 81.606445 -0.000027 0.000002 57.359860 43.878153 119.226088 72.986565 -0.000035 0.000056 -8.458289 11.065478 31.725064 -10.879754 -1.186520 -45.619244 -1.662801 -7.682150 -2.216319 -31.468512 -0.000017 -0.000014 26.239903 -28.752542 16.510333 -81.606415 -0.000069 -0.000033 -11.358599 2.490289 -4.051880 -72.986534 0.000029 0.000024 -11.834977 2.958673 -21.602046 27.200628 -0.000001 -0.000030 -13.777171 13.755309 35.411748 0.000015 -0.000071 141.571106 44.192010 -10.935223 -36.132643 -0.000020 -0.000060 113.727921 -17.122398 -24.709254 -1.583401 -0.000024 40.800930 17.680407 -0.000002 -0.000005 -0.000001 -27.200628 -0.000005 -0.000038 -18.359161 -2.059450 -33.750400 0.000032 -0.000056 141.571106 39.795728 -1.474926 34.179435 0.000037 -0.000037 113.727882 -24.715173 31.572785 -5.882030 0.000001 40.800968 17.680410 0.000004 -0.000000 -0.000001 
0.581265 -35.460800 -223.742065 3.176003 0.535561 -1.267695 -0.000001 0.000013 -22.304483 11.093714 3.992847 -1.703405 0.000003 0.000029 -50.470520 10.617521 1.635366 -3.912028 -0.000012 0.000041 -55.910805 11.593125 17.566618 -3.232088 -0.000063 5.440175 -42.161026 16.001071 17.760512 27.358094 10.857553 -1.186524 -45.619312 1.954107 17.306707 -0.467410 31.468519 0.000045 -0.000002 65.901729 40.768399 6.635699 81.606377 -0.000076 0.000013 57.273028 43.848623 119.205789 72.986511 -0.000030 0.000047 -8.483004 11.053116 31.765902 -10.879758 -1.186518 -45.619331 -1.636404 -7.671516 -2.225566 -31.468508 0.000031 0.000022 26.259680 -28.775788 16.489031 -81.606392 0.000006 0.000027 -11.363498 2.500573 -4.040794 -72.986481 0.000003 0.000020 -11.837703 2.954191 -21.557204 27.200626 -0.000004 0.000011 -13.775114 13.755195 35.419131 0.000026 -0.000064 141.571121 44.173343 -10.920048 -36.127285 -0.000011 -0.000059 113.727936 -17.131721 -24.719737 -1.565454 -0.000026 40.800934 17.680410 -0.000001 -0.000001 -0.000004 -27.200630 -0.000007 0.000067 -18.368861 -2.061543 -33.743327 0.000024 -0.000077 141.571106 39.800510 -1.486179 34.181572 0.000030 -0.000063 113.727913 -24.749079 31.565548 -5.854845 -0.000025 40.800926 17.680407 -0.000001 -0.000003 0.000000 
0.558820 -35.432693 -223.740311 3.177659 0.525619 -1.260748 0.000002 0.000015 -22.304586 11.097106 3.991068 -1.690513 -0.000000 0.000034 -50.470558 10.621380 1.634493 -3.903276 -0.000003 0.000040 -55.910759 11.584024 17.564477 -3.241236 -0.000045 5.440176 -42.160984 16.001368 17.758907 27.349309 10.857560 -1.186532 -45.619282 1.951518 17.303758 -0.475288 31.468489 0.000049 0.000014 65.881580 40.768726 6.620546 81.606346 -0.000077 0.000028 57.325880 43.864851 119.220679 72.986549 -0.000009 -0.000034 -8.462410 11.056307 31.807996 -10.879745 -1.186499 -45.619255 -1.637306 -7.663839 -2.234687 -31.468493 0.000020 -0.000011 26.476571 -28.861729 16.415115 -81.606384 0.000015 -0.000021 -11.456948 2.535671 -4.086707 -72.986526 0.000022 0.000037 -11.927220 2.955463 -21.485004 27.200628 -0.000008 -0.000050 -13.786350 13.747488 35.397578 -0.000000 -0.000056 141.571121 44.192403 -10.952610 -36.092584 -0.000020 -0.000059 113.727859 -17.135753 -24.684275 -1.554525 0.000002 40.800957 17.680408 0.000000 0.000001 -0.000001 -27.200632 -0.000007 -0.000060 -18.375915 -2.036563 -33.752818 -0.000035 -0.000078 141.571045 39.791569 -1.530884 34.177232 -0.000003 -0.000051 113.727898 -24.749380 31.603757 -5.917503 -0.000018 40.800911 17.680408 -0.000000 0.000003 0.000000 
0.533372 -35.413460 -223.745667 3.180918 0.528043 -1.263558 0.000001 0.000010 -22.304506 11.084596 3.988826 -1.704202 0.000005 0.000016 -50.470535 10.605446 1.634884 -3.925244 -0.000003 0.000047 -55.910774 11.584838 17.558050 -3.233477 -0.000035 5.440197 -42.161015 15.999988 17.752869 27.326385 10.857563 -1.186500 -45.619305 1.951805 17.290778 -0.468124 31.468527 0.000016 0.000097 65.965380 40.772456 6.667023 81.606430 0.000031 0.000003 57.312452 43.863536 119.252207 72.986542 -0.000008 0.000003 -8.479957 11.111443 31.922119 -10.879754 -1.186501 -45.619293 -1.630470 -7.668394 -2.232674 -31.468504 0.000013 -0.000031 26.454462 -28.857594 16.439277 -81.606400 -0.000007 -0.000008 -11.344285 2.552730 -4.055415 -72.986542 0.000002 0.000015 -11.823571 2.996185 -21.528994 27.200628 0.000004 0.000007 -13.782782 13.744116 35.401649 -0.000009 -0.000043 141.571091 44.187257 -10.963008 -36.081427 -0.000037 -0.000066 113.727921 -17.124100 -24.684456 -1.568874 -0.000002 40.800938 17.680410 0.000001 -0.000001 0.000000 -27.200632 0.000002 0.000019 -18.373098 -2.043174 -33.741664 0.000013 -0.000070 141.571091 39.796756 -1.524403 34.177700 0.000032 -0.000053 113.727844 -24.782667 31.583379 -5.884645 -0.000016 40.800945 17.680408 -0.000001 0.000007 0.000000 
